<svg xmlns="http://www.w3.org/2000/svg" version="1.1" xmlns:xlink="http://www.w3.org/1999/xlink" xmlns:svgjs="http://svgjs.dev/svgjs" viewBox="0 0 6.35862094134228 6.469381265696035"><g transform="matrix(1,0,0,1,2.079982490532206,1.9763762750313507)"><rect width="6.35862094134228" height="6.469381265696035" x="-2.079982490532206" y="-1.9763762750313507" fill="#ffffff"></rect><g><path d=" M -0.4720299291678392 -0.09342254063758648 Q -0.4668858495771986 -0.0903341033037307 -0.4684300682441265 -0.08776206350841032 Q -0.48593121313597615 -0.058612279161446734 -0.49759809040291164 -0.04112274014984718 L -0.5360314245632642 0.020948821980637966 L -0.5789269401944482 0.0943380224036896 Q -0.5873349055975756 0.11028500073125419 -0.6027770922668547 0.13600539868445738 Q -0.6043213109337826 0.13857743847977766 -0.6094653905244233 0.13548900114592183 Q -0.614609470115064 0.132400563812066 -0.6130652514481361 0.12982852401674572 Q -0.5935051483337158 0.09724935327602163 -0.5890413088799915 0.0801007633243267 Q -0.5845774694262672 0.0629521733726317 -0.5934918844705728 0.05060174000299411 Q -0.6024062995148786 0.038251306633356574 -0.6289840440665219 0.02229438040843479 L -0.8270311083061863 -0.09661045694501424 L -1.0035867758916108 0.19745942631994218 L -0.8055397116519463 0.31636426367339127 Q -0.7798193136987431 0.33180645034267037 -0.7642993506875058 0.334126094308848 Q -0.7487793876762684 0.33644573827502555 -0.7354847124603217 0.3240158705805369 Q -0.722190037244375 0.3115860028860482 -0.7026299341299549 0.2790068321453242 Q -0.7016004550186695 0.27729213894844396 -0.6964563754280289 0.2803805762822998 Q -0.6913122958373883 0.2834690136161556 -0.6923417749486735 0.28518370681303584 Q -0.7098429198405232 0.3143334911599994 -0.7204803179961734 0.33010833697471886 L -0.7640610477129524 0.400753365089605 L -0.8007796886764248 0.4638544063313754 Q -0.8097023936351948 0.48065873125738007 -0.8272035385270444 0.5098085156043437 Q -0.8282330176383297 0.5115232088012239 -0.8333770972289704 0.508434771467368 Q -0.8385211768196109 0.5053463341335123 -0.8374916977083257 0.503631640936632 Q -0.8189610737051908 0.4727671633927882 -0.8144972342514665 0.45561857344109324 Q -0.8100333947977422 0.4384699834893982 -0.8193764831412679 0.42586218034193934 Q -0.8287195714847936 0.41325437719448044 -0.8544399694379968 0.39781219052520134 L -1.251391444515766 0.15948777626266053 Q -1.2771118424689691 0.14404558959338143 -1.2922031321809864 0.14198331540502512 Q -1.3072944218930038 0.13992104121666882 -1.3207604006303493 0.15166486583411615 Q -1.3342263793676945 0.16340869045156342 -1.352242263815187 0.1934158213969671 Q -1.3532717429264722 0.19513051459384734 -1.3584158225171128 0.1920420772599915 Q -1.3635599021077534 0.18895363992613573 -1.362530422996468 0.1872389467292555 L -1.3343918799489682 0.14231431656757254 Q -1.3089991671925267 0.10390585215061288 -1.2956159387458182 0.08161484059117013 Q -1.277600054298326 0.05160770964576644 -1.2546072488243596 0.009425593809356037 L -1.2281833989737398 -0.03652851546361213 Q -1.2271539198624546 -0.03824320866049247 -1.222009840271814 -0.03515477132663669 Q -1.2168657606811735 -0.032066333992780804 -1.2178952397924587 -0.03035164079590058 Q -1.2369406033512362 0.0013701833463832802 -1.2408044659843418 0.01946218615294104 Q -1.2446683286174474 0.03755418895949869 -1.2355826100517429 0.050590665406177626 Q -1.2264968914860384 0.06362714185285656 -1.2007764935328353 0.07906932852213566 L -1.0258777874510536 0.1840761978732336 L -0.8493221198656291 -0.10999368539172283 L -1.0242208259474108 -0.21500055474282076 Q -1.049941223900614 -0.23044274141209986 -1.0654611869118513 -0.23276238537827743 Q -1.0809811499230886 -0.2350820293444551 -1.0951331717374755 -0.223166901205609 Q -1.1092851935518622 -0.21125177306676302 -1.12833055711064 -0.17952994892447904 Q -1.1298747757775676 -0.17695790912915876 -1.1350188553682083 -0.18004634646301465 Q -1.1401629349588491 -0.18313478379687043 -1.138618716291921 -0.1857068235921906 L -1.1130538710226343 -0.2263447207616731 Q -1.0866316791549075 -0.266467878375513 -1.06758631559613 -0.29818970251779686 Q -1.0536883475937788 -0.3213380606756797 -1.0317250212310978 -0.36180548331521 L -1.0042716922691928 -0.4094742857850584 Q -1.002727473602265 -0.4120463255803788 -0.9975833940116243 -0.408957888246523 Q -0.9924393144209837 -0.40586945091266713 -0.9939835330879115 -0.40329741111734674 Q -1.0125141570910465 -0.37243293357350293 -1.0162919534677295 -0.35545564714320665 Q -1.0200697498444122 -0.3384783607129104 -1.0111553348001068 -0.3261279273432729 Q -1.002240919755801 -0.3137774939736353 -0.9765205218025979 -0.2983353073043562 L -0.5795690467248287 -0.060010893041815394 Q -0.5538486487716254 -0.04456870637253618 -0.5383286857603882 -0.04224906240635873 Q -0.5228087227491508 -0.03992941844018105 -0.5100287870888467 -0.05150193953622961 Q -0.4972488514285427 -0.06307446063227817 -0.47871822742540776 -0.09393893817612198 Q -0.4771740087584799 -0.09651097797144237 -0.4720299291678392 -0.09342254063758648 Z M -0.1347622955375649 -0.5696998653791373 Q -0.13245464187841077 -0.5716168251046904 -0.12957311729967247 -0.5720604647130743 Q -0.1266915927209341 -0.572504104321458 -0.12605260614574976 -0.5717348864350733 Q -0.08518180529558528 -0.5068844613179919 -0.044925651058970395 -0.4584237344757553 Q -0.03981375845749546 -0.4522699913846776 -0.03988495910350437 -0.447660769056778 Q -0.039956159749513165 -0.4430515467288785 -0.04687912072697559 -0.4373006675522192 L -0.380719683417939 -0.1599804939222056 Q -0.38302733707709313 -0.1580635341966525 -0.3868612565281993 -0.16267884151496076 Q -0.3906951759793055 -0.16729414883326899 -0.38838752232015133 -0.1692111085588221 Q -0.3622341141830713 -0.19093665211509042 -0.35350616982003014 -0.2046870334623716 Q -0.34477822545698894 -0.21843741480965279 -0.3498128324220463 -0.23310550032574504 Q -0.35484743938710367 -0.2477735858418373 -0.3740170366426346 -0.2708501224333786 L -0.6698678209529947 -0.6269980038294984 Q -0.6890374182085257 -0.6500745404210397 -0.7022139286362226 -0.6573291646669117 Q -0.7153904390639196 -0.6645837889127837 -0.731212351409589 -0.6585907020849497 Q -0.7470342637552583 -0.6525976152571158 -0.7724184540059535 -0.6315110582760318 Q -0.7747261076651077 -0.6295940985504787 -0.7785600271162139 -0.6342094058687869 Q -0.7823939465673201 -0.6388247131870952 -0.780086292908166 -0.6407416729126483 L -0.4600916521721273 -0.9065600881893434 Q -0.4523994733082802 -0.912949953941187 -0.44664859413162095 -0.9060269929637247 L -0.3620419035848843 -0.8073066408840812 Q -0.3607639304345156 -0.8057682051113119 -0.36435564223444716 -0.8014845610614132 Q -0.3679473540343786 -0.7972009170115144 -0.37063353164631646 -0.7988695840954843 Q -0.46193923049056684 -0.8712247453389163 -0.5503992874248083 -0.7977412891927145 L -0.5811680028801967 -0.7721818261853399 Q -0.6088598467900461 -0.7491783094787029 -0.6120912896084201 -0.7295936783279362 Q -0.615322732426794 -0.7100090471771696 -0.5955141485960787 -0.6861632926992436 L -0.4651608872584686 -0.5292428438767631 L -0.3913159701655366 -0.590585555094462 Q -0.3067020026632187 -0.6608740783647419 -0.35398700922686155 -0.7177962019572104 Q -0.35590396895241466 -0.7201038556163644 -0.3516732705772988 -0.7236182817798784 Q -0.3474425722021829 -0.7271327079433925 -0.3455256124766298 -0.7248250542842383 L -0.2907029983219749 -0.6572641115935843 L -0.25990141140192513 -0.6217498575086874 Q -0.23791540522325608 -0.5984128582947454 -0.22513567371956883 -0.5830285005670514 Q -0.2238577005692001 -0.5814900647942819 -0.22847300788750832 -0.5776561453431757 Q -0.2330883152058166 -0.5738222258920695 -0.23436628835618534 -0.575360661664839 Q -0.28931913382204055 -0.6415133998939239 -0.3754715370971279 -0.5699469034732751 L -0.44854723630367516 -0.5092431788307608 L -0.3034972837368247 -0.3346307186214319 Q -0.28241072675574075 -0.3092465283707365 -0.2644886776985352 -0.30723402803753985 Q -0.2465666286413296 -0.3052215277043432 -0.22195165627701893 -0.3256690981102428 L -0.18425997984416823 -0.35697944029427664 Q -0.08118478306861732 -0.4426036413689813 -0.13656119393273497 -0.5656054833056304 Q -0.13783916708310373 -0.5671439190783999 -0.1347622955375649 -0.5696998653791373 Z M 0.6989453336128411 -0.7766996546172479 Q 0.701108165606293 -0.7711030344078625 0.6964443154318052 -0.7693006744133193 Q 0.6787216847687515 -0.7624517064340548 0.6388243993052367 -0.7491774225496863 Q 0.5989271138417218 -0.7359031386653179 0.5812044831786681 -0.7290541706860534 Q 0.5578852323062291 -0.720042370713337 0.5268919951175293 -0.7059207826806475 Q 0.4958987579288296 -0.691799194647958 0.4781761272657759 -0.6849502266686935 Q 0.4744450471261857 -0.6835083386730589 0.4722822151327337 -0.6891049588824443 Q 0.4701193831392818 -0.6947015790918296 0.47385046327887204 -0.6961434670874643 Q 0.5009007942909014 -0.7065971550558153 0.5111501217691121 -0.7175265322679163 Q 0.521399449247323 -0.7284559094800174 0.5159923692636931 -0.7424474600034807 Q 0.5105852892800633 -0.7564390105269442 0.481751206726093 -0.7838907078018093 L 0.3020686751961606 -0.9492363695622401 L 0.13323729887970204 -0.8839909377597732 L 0.12377566200378748 -0.6948653778065287 Q 0.12246381151737887 -0.6621961407737893 0.13111513949118664 -0.6398096599362478 Q 0.1437316594529896 -0.6071627087148332 0.1735394063057845 -0.5993846480593935 Q 0.20334715315857935 -0.5916065874039539 0.24532180472896958 -0.6078278273548434 Q 0.2499856549034574 -0.6096301873493867 0.25214848689690933 -0.6040335671400013 Q 0.2543113188903613 -0.598436946930616 0.24964746871587346 -0.5966345869360726 Q 0.23285760808771735 -0.5901460909557168 0.200422482903383 -0.5797555830626177 Q 0.16425627757945832 -0.5679231871738838 0.13813871660232663 -0.5578299712044414 Q 0.11295392566009248 -0.5480972272339076 0.0800951484015976 -0.533254695203401 Q 0.05096745128269295 -0.5198540511685288 0.03137928054984417 -0.512284139191447 Q 0.026715430375356366 -0.5104817791969037 0.024552598381904427 -0.5160783994062891 Q 0.022389766388452484 -0.5216750196156744 0.027053616562940287 -0.5234773796102177 Q 0.053171177540072 -0.5335705955796601 0.06692861621513044 -0.5506800339427977 Q 0.08068605489018887 -0.5677894723059353 0.08720246354944824 -0.6008619142808718 Q 0.09371887220870764 -0.6339343562558081 0.09685169114226189 -0.6951812781827879 L 0.12292880117344765 -1.2241434548385688 Q 0.12371292524651678 -1.2276627089410788 0.13024231549079973 -1.2301860129334392 Q 0.13677170573508263 -1.2327093169257999 0.13878589176670617 -1.2302714788200158 L 0.5453877177774851 -0.8577987213132415 Q 0.603988652920323 -0.80325579876242 0.6354612567114951 -0.7870084848119883 Q 0.6669338605026671 -0.7707611708615563 0.6921186514449013 -0.78049391483209 Q 0.696782501619389 -0.7822962748266333 0.6989453336128411 -0.7766996546172479 Z M 0.13448596929085882 -0.9112753806202075 L 0.2818636348046734 -0.9682299564477753 L 0.14388442609152158 -1.095016146401147 L 0.13448596929085882 -0.9112753806202075 Z M 0.9351715299284408 -0.857494371639427 Q 0.9365613329424736 -0.8305301648537233 0.9416730576352166 -0.8187777067846382 Q 0.9467847823279595 -0.8070252487155533 0.9599734453009328 -0.8036997158281315 Q 0.973162108273906 -0.8003741829407097 1.0021236637104025 -0.8018669343261523 L 1.0620441232341884 -0.8049553854684475 Q 1.132950000337335 -0.8086100526534967 1.1798518119464156 -0.8505799236061967 Q 1.2267536235554966 -0.8925497945588967 1.2392836423196099 -0.9602845613317363 Q 1.2401278940878915 -0.9633320584936305 1.2451470028077263 -0.963090092259457 Q 1.2501661115275606 -0.9628481260252832 1.2503205340846755 -0.959852103049094 Q 1.24617103861237 -0.8655134487904852 1.249362438126075 -0.8035956406159066 Q 1.2497742316117142 -0.7956062460127351 1.2469583682854921 -0.7919564633167329 Q 1.24414250495927 -0.7883066806207306 1.2351544360307023 -0.7878434129493863 L 0.7677748517451728 -0.7637534940394843 Q 0.76577750309438 -0.7636505456680744 0.7654686579801504 -0.769642591620453 Q 0.7651598128659209 -0.7756346375728317 0.7671571615167138 -0.7757375859442415 Q 0.8011120885801924 -0.7774877082582087 0.8163341696953125 -0.7832789297636171 Q 0.8315562508104326 -0.7890701512690255 0.8363025839073917 -0.8038340370086507 Q 0.8410489170043507 -0.8185979227482761 0.839504691433203 -0.848558152510169 L 0.8156721434518257 -1.3109443651687163 Q 0.8141279178806782 -1.3409045949306093 0.8079145704911289 -1.3546029274647822 Q 0.8017012231015797 -1.368301259998955 0.7854393258738597 -1.3729703818173569 Q 0.7691774286461398 -1.3776395036357585 0.7362211759080576 -1.3759408555074963 Q 0.7342238272572648 -1.3758379071360864 0.7339149821430352 -1.3818299530884648 Q 0.7336061370288057 -1.3878219990408436 0.7356034856795985 -1.3879249474122535 L 0.7865873504605214 -1.3895514565578078 Q 0.8306319691493742 -1.3898189720780314 0.8585948502604743 -1.391260249277769 Q 0.8885550800223672 -1.3928044748489166 0.9323938019684003 -1.3970666876707258 L 0.9822760440525169 -1.4006390712813683 Q 0.9852720670287062 -1.4007934938384832 0.9855809121429357 -1.3948014478861044 Q 0.9858897572571652 -1.388809401933726 0.9828937342809759 -1.3886549793766112 Q 0.9499374815428937 -1.3869563312483488 0.934741137520626 -1.3806657725802423 Q 0.9195447934983585 -1.3743752139121357 0.9147984604013994 -1.3596113281725102 Q 0.9100521273044404 -1.3448474424328851 0.9115963528755879 -1.314887212670992 L 0.9351715299284408 -0.857494371639427 Z M 1.5363594781307939 -1.3162355497281553 Q 1.4888537826452652 -1.2895951875602676 1.4498171655819867 -1.221088673065258 Q 1.4493255631716877 -1.2191500325441225 1.4439943017385652 -1.2205019391724443 Q 1.4386630403054428 -1.2218538458007662 1.439400443920891 -1.2247618065824692 Q 1.4528639719639895 -1.261582091924013 1.4728273473835176 -1.3199662819231812 Q 1.492790722803046 -1.3783504719223496 1.500410560162678 -1.4083993999999491 Q 1.5016395661884252 -1.4132460013027879 1.5069708276215477 -1.411894094674466 Q 1.5123020890546703 -1.4105421880461442 1.5110730830289232 -1.4056955867433056 Q 1.5056654565156358 -1.3843705410108156 1.5599473911074286 -1.3706056735224479 Q 1.642571529900805 -1.3465588090978942 1.754043359866094 -1.3182916705057104 Q 1.81123325523959 -1.3037893994018943 1.875699994847359 -1.2895051603831678 L 1.941859573771114 -1.2737599986935746 Q 1.9786937436726877 -1.2644195528978965 1.99688585425837 -1.2649646331106204 Q 2.0150779648440524 -1.2655097133233442 2.0236115842241325 -1.2788205112061128 Q 2.025564109305298 -1.2824519910432342 2.0304107106081366 -1.2812229850174872 Q 2.0352573119109754 -1.27999397899174 2.0342741070903774 -1.2761166979494691 Q 2.0237463089490424 -1.246805173487318 2.0053528722429252 -1.1864754006869993 Q 1.9869594355368085 -1.1261456278866806 1.9773731885359809 -1.088342137724539 Q 1.9766357849205325 -1.0854341769428357 1.97130452348741 -1.0867860835711576 Q 1.9659732620542876 -1.0881379901994794 1.9657413454091681 -1.0912917521863321 Q 1.9749748355999963 -1.1683874243015415 1.9480817299469444 -1.2128622584027924 Q 1.9211886242938925 -1.2573370925040432 1.8601214478781256 -1.2728225684284569 Q 1.8329804805822292 -1.2797050021726408 1.8186656510388177 -1.2781767171393192 Q 1.804350821495406 -1.2766484321059979 1.7969163652584834 -1.2656380342720737 Q 1.789481909021561 -1.2546276364381495 1.7828452764825264 -1.2284559894028209 L 1.669530920908642 -0.7815993492810975 Q 1.6619110835490098 -0.7515504212034979 1.6642857882403244 -0.7365051303246531 Q 1.6666604929316389 -0.7214598394458085 1.6828792515961108 -0.7121888164502801 Q 1.6990980102605828 -0.7029177934547519 1.7369015004227242 -0.6933315464539244 Q 1.7398094612044273 -0.6925941428384761 1.738334653973531 -0.6867782212750697 Q 1.7368598467426342 -0.6809622997116633 1.733951885960931 -0.6816997033271116 Q 1.7000256768410607 -0.6903027455073414 1.6808850728348554 -0.6961880898708976 L 1.601646612673451 -0.7173131089537181 L 1.5257938311440187 -0.7355162826948055 Q 1.505192304466947 -0.7397087877423757 1.469327454825941 -0.7488034323329044 Q 1.4673888143048055 -0.7492950347432032 1.468863621535702 -0.7551109563066096 Q 1.4703384287665986 -0.760926877870016 1.472277069287734 -0.7604352754597171 Q 1.5100805594498756 -0.7508490284588896 1.5292419902961256 -0.7511483074664639 Q 1.5484034211423758 -0.7514475864740382 1.5582681203107327 -0.763905022418799 Q 1.5681328194790896 -0.7763624583635598 1.5755068556335723 -0.8054420661805917 L 1.6893128136177555 -1.2542373468234504 Q 1.6957036449516405 -1.2794396735982114 1.693806658110595 -1.2923005227507711 Q 1.6919096712695496 -1.3051613719033313 1.6805375139079162 -1.3132033888731123 Q 1.6691653565462827 -1.3212454058428933 1.6429937095109541 -1.3278820383819279 Q 1.5838651736163225 -1.3428759118960427 1.5363594781307939 -1.3162355497281553 Z M 2.5548815056895386 -0.2173032275461917 Q 2.5514538022391666 -0.2123787124374415 2.5489915446847915 -0.2140925641626274 Q 2.5210859590685404 -0.23351621704806774 2.5044214400963103 -0.24633393164249417 L 2.445077790181578 -0.2888584094734764 L 2.3747425422325543 -0.33659678916895225 Q 2.3593977129979087 -0.34605914700194274 2.3347751374541574 -0.36319766425380184 Q 2.3323128798997823 -0.36491151597898774 2.3357405833501543 -0.36983603108773794 Q 2.3391682868005264 -0.3747605461964882 2.341630544354901 -0.3730466944713023 Q 2.3728191400436525 -0.3513379059522807 2.3896283523937547 -0.3457298421001857 Q 2.406437564743857 -0.3401217782480907 2.4193600545701415 -0.3481846100514694 Q 2.4322825443964255 -0.356247441854848 2.44999234555668 -0.38169076991672407 L 2.5819589283959954 -0.5712846016036071 L 2.3004408146791087 -0.7672349821831965 L 2.1684742318397934 -0.5776411504963135 Q 2.151335714587934 -0.5530185749525625 2.1479766130249525 -0.5376899599893776 Q 2.1446175114619708 -0.5223613450261928 2.1561242609871822 -0.5082601140386498 Q 2.1676310105123937 -0.4941588830511068 2.198819606201145 -0.47245009453208525 Q 2.200461111237395 -0.47130752671529463 2.1970334077870235 -0.46638301160654444 Q 2.1936057043366515 -0.46145849649779425 2.1919641993004015 -0.4626010643145848 Q 2.1640586136841504 -0.48202471720002515 2.14903559974817 -0.49369986397766097 L 2.0814844246521873 -0.5419371808925963 L 2.0209982069206647 -0.5828201536873285 Q 2.0048326251678934 -0.5928537954287142 1.9769270395516425 -0.6122774483141545 Q 1.9752855345153923 -0.6134200161309452 1.9787132379657641 -0.6183445312396953 Q 1.982140941416136 -0.6232690463484456 1.983782446452386 -0.622126478531655 Q 2.0133295371048874 -0.601560257829424 2.0301387494549896 -0.595952193977329 Q 2.0469479618050914 -0.590344130125234 2.0601560935855736 -0.5988173381876752 Q 2.073364225366056 -0.6072905462501164 2.090502742617915 -0.6319131217938674 L 2.355007192204941 -1.0119215376857587 Q 2.3721457094568 -1.0365441132295095 2.375219169065584 -1.051462351933632 Q 2.378292628674368 -1.0663805906377541 2.3674818973624165 -1.080606555930162 Q 2.3566711660504653 -1.0948325212225698 2.327944827916089 -1.1148274580164055 Q 2.326303322879839 -1.1159700258331962 2.3297310263302107 -1.1208945409419464 Q 2.3331587297805827 -1.1258190560506964 2.3348002348168326 -1.124676488233906 L 2.3777288343690643 -1.09357768857083 Q 2.4143408823860253 -1.0656571237483958 2.435680447857276 -1.050803742130118 Q 2.4644067859916525 -1.0308088053362823 2.5049454746784448 -1.0050286827695576 L 2.5490166420474667 -0.9755713881427315 Q 2.550658147083717 -0.9744288203259409 2.547230443633345 -0.9695043052171908 Q 2.543802740182973 -0.9645797901084405 2.542161235146723 -0.9657223579252311 Q 2.511793391976097 -0.9868598625358573 2.4940025194585367 -0.991932815824025 Q 2.476211646940977 -0.9970057691121926 2.4625931389014326 -0.9888182030039491 Q 2.448974630861888 -0.9806306368957056 2.4318361136100286 -0.9560080613519545 L 2.3152941962973865 -0.7885745476544475 L 2.5968123100142733 -0.592624167074858 L 2.7133542273269153 -0.7600576807723651 Q 2.7304927445787746 -0.7846802563161162 2.7338518461417562 -0.800008871279301 Q 2.737210947704738 -0.8153374862424858 2.726275482087922 -0.8302594697481538 Q 2.7153400164711057 -0.8451814532538219 2.684972173300479 -0.8663189578644481 Q 2.6825099157461043 -0.868032809589634 2.685937619196476 -0.8729573246983843 Q 2.6893653226468475 -0.8778818398071344 2.691827580201223 -0.8761679880819485 L 2.7306524171628292 -0.8479256079608489 Q 2.76890597021604 -0.8188624753216243 2.799273813386667 -0.797724970710998 Q 2.8214341313760425 -0.7823003051843248 2.8603313150265848 -0.7576627504343909 L 2.9060439874318567 -0.7270628879907741 Q 2.9085062449862322 -0.7253490362655881 2.90507854153586 -0.7204245211568381 Q 2.901650838085488 -0.7155000060480878 2.8991885805311135 -0.7172138577732736 Q 2.869641489878612 -0.7377800784755046 2.8529570118333747 -0.7426921241143395 Q 2.8362725337881374 -0.7476041697531743 2.8233500439618533 -0.7395413379497957 Q 2.8104275541355683 -0.7314785061464171 2.793289036883709 -0.706855930602666 L 2.528784587296683 -0.3268475147107749 Q 2.5116460700448244 -0.30222493916702386 2.5082869684818427 -0.286896324203839 Q 2.504927866918861 -0.2715677092406542 2.5156138639259478 -0.2580377621615065 Q 2.526299860933034 -0.2445078150823588 2.555846951585535 -0.22394159438012784 Q 2.5583092091399102 -0.22222774265494194 2.5548815056895386 -0.2173032275461917 Z M 2.9712875457334795 0.013128529968552655 Q 2.9666903761602015 0.018616337537566807 2.960382177390802 0.023536360737283102 Q 2.9532854537752278 0.02907138683696392 2.946843275502056 0.03219361986745328 Q 2.940401097228885 0.03531585289794262 2.939171091428956 0.03373880320559272 L 2.851840679633992 -0.07823172495124855 L 2.73987015147715 0.009098686843715564 Q 2.7382931017848007 0.010328692643644638 2.7318827898658395 0.004548735801104459 Q 2.7254724779468784 -0.0012312210414356928 2.7199374518471977 -0.008327944657010145 Q 2.7076373938479072 -0.024098441580508917 2.7100029683864317 -0.02594345028040254 L 2.823550546235623 -0.11450386787529573 L 2.736220134440659 -0.22647439603213707 Q 2.73499012864073 -0.22805144572448693 2.739981560637095 -0.23384675474348338 Q 2.7449729926334605 -0.2396420637624798 2.752069716249035 -0.24517708986216064 Q 2.758377915018434 -0.2500971130618769 2.764118329418536 -0.2533061070654714 Q 2.7698587438186375 -0.256515101069066 2.7710887496185665 -0.2549380513767161 L 2.859034164313495 -0.14217899837369985 L 2.971004692470337 -0.22950941016866397 Q 2.9725817421626863 -0.23073941596859304 2.978377051181683 -0.22574798397222784 Q 2.984172360200679 -0.2207565519758626 2.9890923834003957 -0.21444835320646308 Q 2.9946274095000764 -0.20735162959088865 2.997749642530566 -0.20090945131771726 Q 3.0008718755610553 -0.19446727304454586 2.9992948258687053 -0.1932372672446168 L 2.887324297711864 -0.10590685544965267 L 2.974654709506828 0.006063672707188605 Q 2.975884715306757 0.007640722399538502 2.9712875457334795 0.013128529968552655 Z M 3.1908022144414048 0.4328522954337116 Q 3.1851575955443403 0.437255507614257 3.1779588208242986 0.4407451555234427 Q 3.169860199264251 0.4446710094212766 3.1629069624012423 0.4463746810818062 Q 3.155953725538233 0.4480783527423358 3.1550813135609364 0.44627865906232533 L 3.0931400631728905 0.3185004077815796 L 2.9653618118921448 0.3804416581696257 Q 2.9635621182121343 0.38131407014692215 2.958504597048617 0.3743196809898498 Q 2.953447075885099 0.3673252918327775 2.949521221987265 0.35922667027273025 Q 2.940797102214301 0.34122973347262525 2.9434966427343165 0.3399211155066806 L 3.0730745876950727 0.2771074531413381 L 3.011133337307027 0.14932920186059243 Q 3.0102609253297303 0.14752950818058191 3.016355467646797 0.14290819300571247 Q 3.0224500099638645 0.138286877830843 3.030548631523912 0.13436102393300908 Q 3.0377474062439536 0.1308713760238234 3.044032616692636 0.12893588393761526 Q 3.0503178271413183 0.12700039185140716 3.0511902391186148 0.12880008553141764 L 3.113567695495309 0.25747818365216857 L 3.241345946776055 0.1955369332641225 Q 3.2431456404560652 0.19466452128682607 3.2477669556309348 0.20075906360389315 Q 3.2523882708058043 0.2068536059209602 3.2558779187149898 0.2140523806410022 Q 3.2598037726128237 0.22215100220104947 3.261507444273353 0.22910423906405855 Q 3.263211115933883 0.2360574759270676 3.2614114222538726 0.23692988790436403 L 3.133633170973127 0.2988711382924101 L 3.1955744213611728 0.4266493895731558 Q 3.1964468333384692 0.4284490832531663 3.1908022144414048 0.4328522954337116 Z" fill="#1a702d" fill-rule="nonzero"></path></g><g><path d=" M -0.9396094896996194 2.1610030368869677 Q -0.9569888455735184 2.1905192695295046 -0.963682499806181 2.2237524606644765 Q -0.9703761540388438 2.256985651799448 -0.9755747460847167 2.3128244791576633 Q -0.9817025777536983 2.371334731926188 -0.9891076983860695 2.407689431600646 Q -0.9965128190184407 2.4440441312751036 -1.0170718301613344 2.4773206554449505 Q -1.0376308413042281 2.5105971796147966 -1.0781383229301769 2.530196769720802 Q -1.1222464695895435 2.551538545614007 -1.168909471187946 2.5457883906745735 Q -1.2155724727863484 2.5400382357351403 -1.2565146698223282 2.5070801335163075 Q -1.297456866858308 2.474122031297475 -1.3248962930067147 2.4174115570211465 Q -1.3423181508787192 2.38140490668697 -1.3507528828495565 2.3421607313665462 Q -1.3591876148203939 2.3029165560461227 -1.3556154691272173 2.2689718985114427 Q -1.3550927025861546 2.26316442787927 -1.3523631304463373 2.259621909575361 Q -1.3496335583065198 2.2560793912714514 -1.3424322282396843 2.2525950196970506 L -1.2180639177630033 2.1813102152210906 Q -1.2148987991763855 2.178667863175536 -1.2116031274606305 2.1831832311496853 Q -1.2083074557448756 2.1876985991238342 -1.2114725743314931 2.190340951169389 Q -1.2694320952432265 2.2450464713267038 -1.298412409723606 2.3068375821163496 Q -1.3273927242039858 2.3686286929059954 -1.2973400193747782 2.4307401647324505 Q -1.276869336375173 2.4730479788751083 -1.2401953837129318 2.49029678161987 Q -1.2035214310506905 2.5075455843646313 -1.151311788066134 2.482283890450225 Q -1.1117044726985394 2.4631198467910203 -1.090709915108846 2.430743488879528 Q -1.069715357519152 2.398367130968036 -1.0618746904399807 2.3629125975519325 Q -1.0540340233608094 2.327458064135829 -1.0488354313149366 2.271619236777614 Q -1.042301126563909 2.2162450292309526 -1.034925079296292 2.1821262085200037 Q -1.0275490320286749 2.148007387809055 -1.0074691773797126 2.1171845158261173 Q -0.9873893227307506 2.08636164384318 -0.9495823398798648 2.068068693077575 Q -0.9036738607037893 2.0458558242907694 -0.8592903481160271 2.054930724310712 Q -0.8149068355282649 2.0640056243306546 -0.7797721091244577 2.0964409600084246 Q -0.7446373827206505 2.1288762956861946 -0.7232956068274451 2.172984442345561 Q -0.6941139948918377 2.2332955816553075 -0.6912983107067834 2.2919221278828488 Q -0.6901661115549084 2.3080379004389657 -0.7009681066551614 2.313264457800567 L -0.8113111567154635 2.372208594942353 Q -0.8149118217488812 2.3739507807295532 -0.8179897202412362 2.3698854958845814 Q -0.8210676187335912 2.365820211039609 -0.8179025001469735 2.3631778589940544 Q -0.7740845331106361 2.3297565220249496 -0.7461061416652506 2.276226534054385 Q -0.7181277502198651 2.222696546083821 -0.7468738157086723 2.1632855730324287 Q -0.7686511380486778 2.118277260114708 -0.8076336530863135 2.1065890814139645 Q -0.8466161681239491 2.0949009027132215 -0.8880238160082525 2.114936039266026 Q -0.9222301338257206 2.1314868042444304 -0.9396094896996194 2.1610030368869677 Z M -0.9444664114819622 2.92808853626718 Q -0.9521461547515411 2.9417732556034815 -0.9458661484555473 2.9578297658383454 Q -0.9395861421595537 2.973886276073209 -0.917313659124749 3.00216942475691 Q -0.9160762989561487 3.0037407107948932 -0.9207901570700989 3.007452791300694 Q -0.9255040151840491 3.011164871806495 -0.9267413753526493 3.0095935857685117 Q -0.9465391380502535 2.9844530091607773 -0.9568897365486642 2.9696927547346266 L -1.0006490595992819 2.9125077772829244 L -1.0447423085192826 2.858131446037806 Q -1.0572828731399766 2.843822908761264 -1.077699315921881 2.817896689134538 Q -1.0789366760904813 2.8163254030965543 -1.074222817976531 2.812613322590754 Q -1.0695089598625809 2.808901242084953 -1.0682715996939807 2.8104725281229364 Q -1.045999116659176 2.8387556768066373 -1.0315533401311152 2.8490182077079957 Q -1.0171075636030547 2.8592807386093537 -1.0020036593218742 2.855023735500952 Q -0.9868997550406939 2.8507667323925503 -0.9633304644709431 2.8322063298635465 L -0.5995777466777883 2.5457574508325864 Q -0.5760084561080374 2.5271970483035826 -0.5687215343479546 2.5138216690094306 Q -0.5614346125878716 2.5004462897152786 -0.5676311374165195 2.4836876179287692 Q -0.5738276622451673 2.4669289461422594 -0.596100145279972 2.4386457974585585 Q -0.5973375054485723 2.437074511420575 -0.592623647334622 2.4333624309147743 Q -0.5879097892206719 2.4296503504089735 -0.5866724290520717 2.4312216364469568 L -0.5552867076874567 2.472693753518825 Q -0.5296360700162343 2.50849940652306 -0.513550387824431 2.528926125016844 Q -0.49560866537972714 2.5517097725676035 -0.4668154556325381 2.5850407052346376 L -0.4357144884828401 2.6229185330809304 Q -0.4344771283142398 2.6244898191189137 -0.43919098642819 2.6282018996247145 Q -0.4439048445421402 2.6319139801305154 -0.4451422047107404 2.630342694092532 Q -0.46679600766124496 2.6028451884278225 -0.4820274272082973 2.5932013376107648 Q -0.4972588467553497 2.5835574867937066 -0.5123627510365301 2.5878144899021085 Q -0.5274666553177103 2.59207149301051 -0.5510359458874612 2.610631895539514 L -0.9132173776426326 2.895843414401874 Q -0.9367866682123834 2.9144038169308777 -0.9444664114819622 2.92808853626718 Z M 0.16833291462843158 3.124818260024068 Q 0.16479499895532568 3.1296642019025875 0.16237202801606576 3.1278952440660346 Q 0.0961441556762962 3.07954372986692 0.03482028400912651 3.163540055761262 L -0.2729783795510911 3.585136999192478 Q -0.27415768477545976 3.5867523131519845 -0.2783817937965339 3.5849065333769086 Q -0.282605902817608 3.583060753601832 -0.28304191155274594 3.580266134417957 L -0.3339861826825532 2.854661778560681 L -0.5851781954730755 3.1987236519355813 Q -0.6164297839188447 3.2415294718625054 -0.6154217881182638 3.273219122293932 Q -0.6144137923176828 3.3049087727253585 -0.5821075131275513 3.3284948772127314 Q -0.5796845421882915 3.3302638350492844 -0.5832224578613974 3.3351097769278044 Q -0.5867603735345033 3.339955718806324 -0.5891833444737632 3.338186760969771 Q -0.6101824259473487 3.3228557930529785 -0.6208999710517104 3.313792999502645 L -0.6615008244069437 3.282913059301491 L -0.7057039539258055 3.2518794752232907 Q -0.7184084612342891 3.243842343020279 -0.7418305136471345 3.2267424172669337 Q -0.7434458276066411 3.225563112042565 -0.7399079119335351 3.220717170164045 Q -0.7363699962604292 3.2158712282855255 -0.7347546823009227 3.217050533509894 Q -0.7000254321715312 3.2424055958338203 -0.6687271487819808 3.2343020498897666 Q -0.6374288653924303 3.2261985039457133 -0.606177276946661 3.1833926840187887 L -0.3384749910149776 2.8167164152107964 Q -0.34806718318801194 2.7552347931655414 -0.3827964333174033 2.729879730841615 Q -0.3852194042566632 2.7281107730050627 -0.3816814885835572 2.7232648311265426 Q -0.37814357291045125 2.718418889248023 -0.3757206019711914 2.720187847084576 L -0.3448116323729975 2.743991955939518 Q -0.3357094012281424 2.751875444265483 -0.31794094767357006 2.7648478017335383 L -0.2753531321142148 2.7947020805873697 Q -0.26749456668425087 2.7992012971172757 -0.2561873689677048 2.807456433687856 Q -0.24972611312967852 2.812173654585331 -0.24896309784318715 2.817064238157112 Q -0.2482000825566958 2.821954821728894 -0.24881465806488134 2.8363639263834077 Q -0.24980088181768234 2.852977997609613 -0.2480817697731319 2.8777579220198746 L -0.21238739617567082 3.4597466776616694 L 0.014628859515294246 3.148798740456654 Q 0.0458804479610635 3.1059929205297294 0.04557110695645128 3.0741942679145184 Q 0.04526176595183906 3.0423956152993075 0.012955486761707546 3.0188095108119346 Q 0.01134017280220101 3.017630205587566 0.014878088475307027 3.012784263709046 Q 0.018416004148412934 3.0079383218305265 0.02003131810791947 3.009117627054895 L 0.05174794468586663 3.0335113885220215 Q 0.07479834885409664 3.0528162808470576 0.09175914542891572 3.0651989857029287 Q 0.10629697106447478 3.0758127327222464 0.13493661360045528 3.094245607577007 L 0.1694478593622777 3.1182033603089954 Q 0.1718708303015376 3.1199723181455483 0.16833291462843158 3.124818260024068 Z M 0.7131696546481323 3.277557357208544 Q 0.7580081789396078 3.2990691386169435 0.7818326809702745 3.321393858167047 Q 0.7884424872283937 3.327419674396416 0.7896237549264554 3.332430124139255 Q 0.7908050226245171 3.337440573882094 0.7897365610887375 3.34856974231224 L 0.7673984983850772 3.467997590633506 Q 0.7665822244549844 3.4708844049453473 0.761634821613567 3.470005084113833 Q 0.7566874187721496 3.4691257632823183 0.7565414212649622 3.465966857660446 Q 0.752745486078086 3.383835311491772 0.7064469867147352 3.3307344738646516 Q 0.6601484873513843 3.2776336362375313 0.580279958057113 3.255050057504963 Q 0.5100341431356453 3.235187391872704 0.4489564266364683 3.2527305542799256 Q 0.38787871013729125 3.270273716687147 0.34385640426291275 3.321217672025368 Q 0.2998340983885343 3.3721616273635893 0.2780667935860587 3.4491433423460194 Q 0.2527623017531807 3.5386345860130946 0.26618095131286057 3.623487045282078 Q 0.27959960087254043 3.7083395045510614 0.3263991396588756 3.768856470514222 Q 0.3731986784452108 3.829373436477382 0.4434444933666784 3.849236102109641 Q 0.5820115803350527 3.8884172507540975 0.6865674756015422 3.7465121248247537 Q 0.6873837495316351 3.7436253105129125 0.6912328352807565 3.7447136757530366 Q 0.6941196495925976 3.7455299496831294 0.6962532368757677 3.747172449395487 Q 0.6983868241589377 3.7488149491078446 0.6978426415388758 3.7507394919824053 L 0.6514477929032061 3.863365057552898 Q 0.6462581543082739 3.8743681321802006 0.6429001561299648 3.8770558539356044 Q 0.6395421579516556 3.8797435756910086 0.6297933497760083 3.8811438396498517 Q 0.5314690903850995 3.8907532108690983 0.43909103240618325 3.8646324451061274 Q 0.3226561884952575 3.831709396592383 0.25790863061204783 3.7629998357717778 Q 0.1931610727288381 3.694290274951173 0.17700160636450465 3.611780447373969 Q 0.16084214000017122 3.5292706197967645 0.18315362742270877 3.4503643619397737 Q 0.20845811925558672 3.3608731182726985 0.2777417182527697 3.305121141536465 Q 0.3470253172499527 3.249369164800231 0.43935695175639794 3.233388887287991 Q 0.5316885862628431 3.21740860977575 0.6240666442417594 3.243529375538721 Q 0.6683311303566568 3.2560455758001448 0.7131696546481323 3.277557357208544 Z M 1.3982992596296677 3.7714108174301093 Q 1.4012975897870736 3.7713107361272074 1.4038462389030295 3.7727265001201586 Q 1.4063948880189854 3.77414226411311 1.4064282484532862 3.7751417074989115 Q 1.398835765864917 3.8474352356196593 1.400937473225861 3.9104001689251824 Q 1.4012043567002668 3.918395716011598 1.3983227880629134 3.9219938491648065 Q 1.3954412194255599 3.9255919823180156 1.3864462289533424 3.925892226226722 L 0.9606833466017111 3.9401037712388205 Q 0.9576850164443051 3.9402038525417225 0.957484853838501 3.9342071922269106 Q 0.9572846912326968 3.928210531912099 0.9602830213901026 3.928110450609197 Q 0.9962629832789729 3.9269094749743716 1.0120872752803005 3.921378491096551 Q 1.0279115672816284 3.91584750721873 1.03342450129908 3.9011554155187973 Q 1.0389374353165315 3.8864633238188646 1.0379366222875104 3.8564800222448063 L 1.022490741206286 3.3937377346185027 Q 1.0214899281772651 3.363754433044444 1.0150262217822437 3.349962388249021 Q 1.008562515387222 3.3361703434535976 0.991888217132836 3.331223851997649 Q 0.97521391887845 3.3262773605416998 0.9402334003753816 3.327444975742224 Q 0.9372350702179758 3.327545057045126 0.9370349076121716 3.3215483967303143 Q 0.9368347450063674 3.315551736415503 0.9398330751637732 3.3154516551126005 L 1.3476059765709696 3.3018405979179146 Q 1.357600410428989 3.301506993574908 1.3579006543376952 3.3105019840471255 L 1.3641029558311875 3.4363651297895697 Q 1.3642030371340896 3.439363459946976 1.3587227787293292 3.4400466640285305 Q 1.3532425203245688 3.4407298681100853 1.3521429956358648 3.4377648983869804 Q 1.3433120680487125 3.383029035207978 1.3103791073254802 3.3556124326102443 Q 1.2774461466022478 3.328195830012511 1.2254750905405463 3.329930572596148 L 1.1745034778646466 3.3316319547454833 Q 1.1305279688893608 3.333099813854714 1.1159533235310903 3.346093262691749 Q 1.1013786781728199 3.359086711528784 1.102579653807645 3.3950666734176544 L 1.1093518219706873 3.5979536807354506 L 1.2192905944089019 3.5942840329623733 Q 1.2702622070848015 3.592582650813038 1.293665040743786 3.574291741138287 Q 1.3170678744027706 3.556000831463536 1.3158335383336448 3.5190214261888637 Q 1.3157668174650432 3.5170225394172596 1.321263756086954 3.516839057028606 Q 1.3267606947088648 3.516655574639952 1.3268274155774662 3.518654461411556 L 1.3286302486729231 3.6026410662532204 L 1.3311309116022565 3.6475826581800077 Q 1.3341973322714828 3.679498125657069 1.3347978200888955 3.697488106601504 Q 1.3348645409574968 3.6994869933731076 1.3288678806426852 3.699687155978912 Q 1.3228712203278734 3.6998873185847163 1.322804499459272 3.697888431813112 Q 1.3213700007843419 3.6549123662236283 1.2961997489290298 3.6352411074550557 Q 1.2710294970737175 3.6155698486864827 1.2170595542404121 3.6173713121387205 L 1.1101191119596034 3.6209408786088955 L 1.1177586514144637 3.849813413957542 Q 1.118959627049289 3.8857933758464127 1.1328857984035243 3.8983357739987787 Q 1.14681196975776 3.9108781721511443 1.1877891485756398 3.909510394344816 L 1.2527529686527668 3.90734196611527 Q 1.309721241643478 3.9054404213601304 1.3460827940619777 3.8707080516494887 Q 1.3824443464804774 3.835975681938847 1.3943682069550614 3.773543145938916 Q 1.39430148608646 3.771544259167312 1.3982992596296677 3.7714108174301093 Z M 1.996650015500537 3.7788992433753172 Q 1.9897134188681167 3.774302110882219 1.9917654351620995 3.7690305618566264 L 2.011449769110434 3.697019958491494 Q 2.0433046925320295 3.578149172114839 2.058411798155629 3.5081507767069624 Q 2.0735189037792288 3.438152381299086 2.0744918828371723 3.3732751640980316 Q 2.0754648618951164 3.308397946896977 2.0529281327738462 3.2571329896599472 Q 2.0283791956953197 3.201290804098183 1.9880376948204708 3.184069790563418 Q 1.9476961939456219 3.166848777028653 1.8991775737034329 3.1881781813755694 Q 1.8543207361210319 3.2078978193566807 1.8345192293144925 3.2460966456238656 Q 1.8147177225079534 3.2842954718910504 1.8207056755148603 3.3351889333452203 Q 1.8211081171063117 3.3361043790101674 1.8174463344465237 3.337714145375972 Q 1.8101227691269481 3.3409336781075822 1.80942844842609 3.3368694538563433 Q 1.7931583306688128 3.2675565166211897 1.8207455568914688 3.2122804372618505 Q 1.8483327831141247 3.157004357902511 1.913329425325359 3.128431004909472 Q 1.9801569588664871 3.09905276873353 2.034849280007013 3.120342437783602 Q 2.089541601147539 3.141632106833674 2.1165051877747727 3.20296696638512 Q 2.1390419168960433 3.2542319236221497 2.1360368257124795 3.3194563011736333 Q 2.1330317345289163 3.384680678725117 2.1163900479488973 3.444976236337369 Q 2.099748361368878 3.505271793949621 2.0714933289898876 3.5876043704018503 Q 2.046426883533916 3.6597962903943455 2.0392050181682495 3.688095489334248 Q 2.0365294353187267 3.6969182585375844 2.045683891968196 3.692893842623072 Q 2.1573682630917252 3.643795968466019 2.2042771169681092 3.6188047814593145 Q 2.2511859708444932 3.59381359445261 2.2641172038998625 3.5722895796861285 Q 2.2770484369552317 3.550765564919647 2.2646833101022876 3.520153416384946 Q 2.2638784269193852 3.5183225250550523 2.269371100909067 3.5159078755063446 Q 2.2748637748987486 3.513493225957637 2.275668658081651 3.515324117287531 L 2.325058411348111 3.6301572669973523 Q 2.3266681777139158 3.63381904965714 2.325788109121628 3.6380292134630827 Q 2.3249080405293396 3.642239377269025 2.321246257869552 3.64384914363483 L 2.0081638404576916 3.781484167911159 Q 2.003586612132957 3.783496375868415 1.996650015500537 3.7788992433753172 Z M 2.633297095713486 3.4200477424642752 Q 2.5716475003993593 3.4171620193998713 2.506203358939268 3.3742281825278715 Q 2.440759217479176 3.3312943456558717 2.3808025954795093 3.253775293298473 Q 2.321457775745145 3.1770472516794155 2.297056588442256 3.103001103513496 Q 2.272655401139367 3.0289549553475763 2.2853608152292755 2.968559819344716 Q 2.2980662293191845 2.908164683341856 2.347899905834655 2.869621140627785 Q 2.3961515608734434 2.832301202444319 2.4573160465818806 2.836194233143196 Q 2.518480532290318 2.840087263842073 2.583529168381239 2.8833270018467245 Q 2.6485778044721604 2.926566739851376 2.708534426471827 3.004085792208774 Q 2.767879246206191 3.0808138338278317 2.7927655431147698 3.1538526743592783 Q 2.8176518400233483 3.226891514890725 2.80534193130261 3.2869807497609336 Q 2.7930320225818717 3.347069984631142 2.743989356804742 3.3850017250799107 Q 2.6949466910276123 3.4229334655286796 2.633297095713486 3.4200477424642752 Z M 2.6486401408964917 3.065581113619595 Q 2.5495281739174507 2.9374373740083852 2.4729882210878245 2.894868187724895 Q 2.3964482682581973 2.8522990014414042 2.3489876239577496 2.8890071373595676 Q 2.3046910226106645 2.92326806421652 2.329867793261564 3.00240326636823 Q 2.3550445639124638 3.08153846851994 2.443755892381358 3.196235025579356 Q 2.5373616389726745 3.3172596685454985 2.614819295200255 3.3610153709365003 Q 2.692276951427836 3.404771073327502 2.7436926494199882 3.3650039260828253 Q 2.8291218091607946 3.2989292814301314 2.6486401408964917 3.065581113619595 Z M 3.0737474660396216 3.06347766296158 Q 3.0654648996739784 3.062671999012581 3.0648040314862173 3.0570538807120817 L 3.048405223858664 2.9842247717762 Q 3.02077091833464 2.864302525473836 3.0012738293866255 2.7953977830931174 Q 2.981776740438611 2.7264930407123984 2.95219993421818 2.668741741733076 Q 2.922623127997749 2.610990442753754 2.8786702225799248 2.576289691964588 Q 2.830792950606938 2.5384906598549604 2.787087316731128 2.5422078587349857 Q 2.7433816828553184 2.545925057615011 2.710539900858429 2.587523343099737 Q 2.6801767439179085 2.625982135340333 2.6806098384686976 2.669006110390415 Q 2.6810429330194867 2.7120300854404973 2.710206881298699 2.754166342046506 Q 2.7109917546097315 2.7547859983105982 2.7085131295533627 2.7579254915547287 Q 2.7035558794406245 2.764204478042989 2.7010360424605864 2.7609409796755875 Q 2.6541504421215056 2.7073616881457063 2.652581618880101 2.6456037834400155 Q 2.6510127956386964 2.583845878734324 2.6950083903892463 2.5281198736510113 Q 2.7402432976679805 2.4708241219456335 2.7985312750356606 2.4639676144976104 Q 2.856819252403341 2.4571111070495872 2.9094057642425235 2.498628076743768 Q 2.9533586696603473 2.533328827532934 2.9813037266970777 2.5923400450022753 Q 3.009248783733808 2.651351262471617 3.0228387168872435 2.712407087065878 Q 3.0364286500406794 2.7734629116601384 3.050100822365321 2.8594284379129644 Q 3.061831602050348 2.934942600875824 3.068729875450437 2.963322414548532 Q 3.0705060510431115 2.9723692482633735 3.076702613684034 2.9645205151530476 Q 3.1523006779032885 2.868765971207074 3.1820029666560474 2.8246890606659787 Q 3.211705255408807 2.7806121501248833 3.2130275458127255 2.755537231419378 Q 3.2143498362166443 2.7304623127138727 3.1890686732166618 2.7092287826877954 Q 3.1874989265945968 2.7079894701596112 3.1912168641791503 2.703280230293416 Q 3.194934801763704 2.6985709904272204 3.196504548385769 2.6998103029554046 L 3.293994056000748 2.778052209277969 Q 3.2971335492448786 2.780530834334338 3.298331465173262 2.7846618145362423 Q 3.299529381101645 2.7887927947381463 3.297050756045276 2.7919322879822768 L 3.085128313725726 3.0603589603554164 Q 3.0820300324052647 3.0642833269105796 3.0737474660396216 3.06347766296158 Z M 3.4338991097964664 2.564306859980282 Q 3.425651710182231 2.565416093771286 3.423723930391205 2.56009785486378 L 3.391109242136165 2.4929466664154245 Q 3.3367901867498966 2.3825182270442937 3.3020564615470573 2.3198958002825205 Q 3.2673227363442177 2.2572733735207473 3.225326147960662 2.2078134244291623 Q 3.183329559577106 2.1583534753375773 3.1326074286873804 2.1346202615222185 Q 3.0773565361110724 2.10876801075906 3.035658239630144 2.1223787444126363 Q 2.9939599431492154 2.1359894780662128 2.9714981515025367 2.183994351943989 Q 2.9507315894140977 2.2283762164724985 2.960989354971385 2.270161719290722 Q 2.9712471205286715 2.311947222108945 3.009271874213782 2.346300069257132 Q 3.010177626551098 2.346723876646692 3.0084823969928585 2.350346885995958 Q 3.0050919378763785 2.3575929046944903 3.0018927359166723 2.3549919227989338 Q 2.9439995683687954 2.3135506251446203 2.9283532020488914 2.253786997234466 Q 2.9127068357289874 2.1940233693243116 2.942797160387746 2.129714953374838 Q 2.9737350998256247 2.0635950327507313 3.0289118284909997 2.043594317418835 Q 3.0840885571563748 2.023593602086938 3.1447739637565824 2.051988697187457 Q 3.195496094646308 2.0757219110028156 3.2361921920820853 2.1267814610742537 Q 3.276888289517863 2.177841011145692 3.3040768859900953 2.2341728868633535 Q 3.331265482462328 2.2905047625810155 3.364228996066547 2.3710678234145295 Q 3.3929131426991535 2.441900158770348 3.406116913445354 2.467951270801925 Q 3.40991433546921 2.476352436552744 3.4141524093648097 2.467294913179579 Q 3.4658569108911275 2.356793128026962 3.48469569318854 2.3070930245909462 Q 3.503534475485953 2.2573929211549304 3.499089118080843 2.232679791091322 Q 3.4946437606757326 2.2079666610277133 3.4651777409338473 2.1930752648349174 Q 3.463366236259214 2.1922276500557976 3.465909080596574 2.1867931360318984 Q 3.468451924933934 2.1813586220079992 3.470263429608567 2.182206236787119 L 3.5830586643835733 2.236087912819433 Q 3.5866816737328393 2.237783142377673 3.588792288439547 2.241530849084424 Q 3.590902903146255 2.2452785557911756 3.589207673588015 2.2489015651404416 L 3.444265546358502 2.5586688645026943 Q 3.442146509410702 2.563197626189277 3.4338991097964664 2.564306859980282 Z" fill="#1a702d" fill-rule="nonzero"></path></g><g clip-path="url(&quot;#SvgjsClipPath1012&quot;)"><g clip-path="url(&quot;#SvgjsClipPath1008&quot;)"><path d=" M 1.0993279801389337 2.1252678127882048 C 1.5134265523586239 2.126269869131574 1.8873077739641706 1.877594086836843 2.0464712545308066 1.4953041208617792 C 2.2056347350974432 1.1130141548867156 2.118700220063794 0.672481292701593 1.8262423784373436 0.3793140324174682 C 1.5337845368108936 0.08614677213334344 1.0934635899315905 -0.0018547977871194935 0.7107891293555065 0.15638201478854033 C 0.32811466877942247 0.31461882736420027 0.07853378792436769 0.6878964673063306 0.07853257551322601 1.1019962519353879 C 0.07820401782317099 1.3730564454558247 0.18556726229215412 1.633145216381074 0.3770035786726716 1.8250459022373073 C 0.568439895053189 2.0169465880935413 0.8282677861368579 2.12493965286775 1.0993279801390408 2.1252678127882048 Z M 1.0993279801389337 2.2039925038707753 C 1.5452850850961712 2.2050723063197695 1.9479310948998863 1.9372652401006907 2.11934021694888 1.5255641126871726 C 2.2907493389978737 1.113862985273654 2.197126976885907 0.6394377675203191 1.88216922141409 0.3237155514769684 C 1.567211465942273 0.007993335433617686 1.093014605242475 -0.08677887162192881 0.6808991509458721 0.0836316848734766 C 0.2687836966492692 0.2540422413688823 0.0000013072688013603886 0.6560378397112646 0 1.1019962519353868 C -0.0003568811506022931 1.3939109246874615 0.11526507898185653 1.6740109691507061 0.32142972641911544 1.8806760162176774 C 0.5275943738563743 2.087341063284649 0.8074133000045505 2.20364171307847 1.0993279801389055 2.2039925038707753 Z" fill="#23953c" transform="matrix(1,0,0,1,0,0)" fill-rule="evenodd"></path></g><g clip-path="url(&quot;#SvgjsClipPath1008&quot;)"><path d=" M 1.0600723654695066 0.275493726440254 C 1.0600723649165866 0.26146904582618863 1.0675544426758137 0.24850970620732832 1.0797001723413528 0.24149736569493607 C 1.0918459020068922 0.23448502518254385 1.106810058212709 0.2344850251719131 1.1189557878882115 0.24149736566704838 C 1.131101517563714 0.24850970616218357 1.138583595341354 0.2614690457704132 1.1385835948083607 0.2754937264644646 L 1.1385835948083607 2.479486230311029 C 1.1385835953612806 2.4935109109250946 1.1311015176020538 2.506470250543955 1.1189557879365144 2.5134825910563467 C 1.1068100582709752 2.5204949315687393 1.0918459020651585 2.5204949315793703 1.079700172389656 2.5134825910842347 C 1.0675544427141535 2.5064702505891 1.0600723649365136 2.49351091098087 1.0600723654695066 2.4794862302868186 Z" fill="#23953c" transform="matrix(1,0,0,1,0,0)" fill-rule="nonzero"></path></g><g clip-path="url(&quot;#SvgjsClipPath1008&quot;)"><path d=" M 0.7840663308443335 0.841636963124619 C 0.7736630107574368 0.8318190746976388 0.7694123420922462 0.8171258742446991 0.772966968697408 0.8032700223512595 C 0.7765215953025698 0.78941417045782 0.787320659136445 0.7785818787352254 0.8011655251554816 0.7749847011040844 C 0.8150103911745183 0.7713875234729433 0.8297165811466231 0.7755930317841785 0.8395663842105711 0.7859661403634086 L 1.116383573461866 1.0634664071945958 C 1.1315665279750518 1.0788238061351216 1.1315125205764223 1.1035551089458093 1.116262637235832 1.1188460496646242 C 1.1010127538952414 1.1341369903834393 1.0762816856850388 1.1342574922312998 1.0608835200956286 1.1191158837814343 Z" fill="#23953c" transform="matrix(1,0,0,1,0,0)" fill-rule="nonzero"></path></g><g clip-path="url(&quot;#SvgjsClipPath1008&quot;)"><path d=" M 1.3045927928965255 0.5565588043915033 C 1.3183271717005778 0.5428597927849342 1.3183558425960817 0.5206206358384405 1.304656831134228 0.5068862568900461 C 1.290957819672374 0.4931518779416515 1.2687186627261824 0.49312320681181976 1.2549842836334453 0.5068222181289584 L 1.0848766200893403 0.6773354589861847 C 1.0711422412852885 0.6910344705927538 1.0711135703897843 0.7132736275392475 1.0848125818516383 0.727008006487642 C 1.098511593313492 0.7407423854360367 1.1207507502596836 0.7407710565658683 1.1344851293524207 0.7270720452487296 Z" fill="#23953c" transform="matrix(1,0,0,1,0,0)" fill-rule="nonzero"></path></g><g clip-path="url(&quot;#SvgjsClipPath1008&quot;)"><path d=" M 0.6166909775963844 1.500337211884371 C 0.6015080230831987 1.484979812943845 0.6015620304818282 1.4602485101331573 0.6168119138224185 1.4449575694143424 C 0.6320617971630089 1.4296666286955273 0.6567928653732116 1.429546126847667 0.6721910309626219 1.4446877352975322 L 1.1258612748828696 1.8993612494132464 C 1.1362645949697654 1.9091791378402267 1.1405152636349556 1.923872338293166 1.1369606370297936 1.9377281901866052 C 1.1334060104246315 1.9515840420800443 1.1226069465907567 1.9624163338026386 1.1087620805717207 1.9660135114337798 C 1.0949172145526846 1.9696106890649208 1.0802110245805803 1.9654051807536865 1.070361221516632 1.955032072174457 Z" fill="#23953c" transform="matrix(1,0,0,1,0,0)" fill-rule="nonzero"></path></g><g clip-path="url(&quot;#SvgjsClipPath1008&quot;)"><path d=" M 1.563223041583192 1.0978977864560346 C 1.5723443163835198 1.0890809956529357 1.5760045648933703 1.0760319897809487 1.5727993643409468 1.0637576204094719 C 1.5695941637885233 1.0514832510379952 1.5600213010939952 1.0418898015419735 1.5477538455375766 1.0386582402753417 C 1.5354863899811577 1.0354266790087099 1.5224295511807389 1.0390588868690733 1.5135931861691527 1.048161200170137 L 1.0848766200893403 1.4779237287941598 C 1.0759920345096614 1.486785435417599 1.0725100031268187 1.499713860023088 1.0757421734789352 1.5118389901262022 C 1.0789743438310515 1.5239641202293168 1.0884296723454856 1.533443860099959 1.100546428237956 1.5367072834321105 C 1.1126631841304266 1.539970706764262 1.1256005439126626 1.5365220219140776 1.134485129305595 1.5276603151034098 Z" fill="#23953c" transform="matrix(1,0,0,1,0,0)" fill-rule="nonzero"></path></g></g><g transform="matrix(0.017329123939758804,-0.999849839457646,0.999849839457646,0.017329123939758804,-2.4726701803889126,-0.056438539468055327)"><g clip-path="url(&quot;#SvgjsClipPath1013&quot;)"><path d=" M -1.2650476866502505 1.408437551815224 C -1.1655690138916297 1.408437551815224 -1.083168267857147 1.3262130940566033 -1.083168267857147 1.2265581330221205 C -1.083168267857147 1.1270798609186723 -1.1655690138916297 1.0446793152117757 -1.2652239749261125 1.0446793152117757 C -1.3647028480123193 1.0446793152117757 -1.446927105443354 1.1270798609186723 -1.446927105443354 1.2265581330221205 C -1.446927105443354 1.3262130940566033 -1.3645267600640436 1.408437551815224 -1.2650476866502505 1.408437551815224 Z" fill="#23953c" transform="matrix(1,0,0,1,0,0)" fill-rule="nonzero"></path></g></g><g transform="matrix(-0.017329123939758804,-0.999849839457646,-0.999849839457646,0.017329123939758804,4.753271258606659,4.671602722245407)"><g clip-path="url(&quot;#SvgjsClipPath1014&quot;)"><path d=" M 3.4637036469281184 1.4084375518152237 C 3.563182319686739 1.4084375518152237 3.645583065721222 1.326213094056603 3.645583065721222 1.2265581330221202 C 3.645583065721222 1.127079860918672 3.563182319686739 1.0446793152117755 3.4635273586522564 1.0446793152117755 C 3.3640484855660495 1.0446793152117755 3.281824228135015 1.127079860918672 3.281824228135015 1.2265581330221202 C 3.281824228135015 1.326213094056603 3.3642245735143255 1.4084375518152237 3.4637036469281184 1.4084375518152237 Z" fill="#23953c" transform="matrix(1,0,0,1,0,0)" fill-rule="nonzero"></path></g></g></g><defs><clipPath id="SvgjsClipPath1012"><path d=" M 0 0 h 2.1986559602778675 v 2.5188485758523145 h -2.1986559602778675 Z"></path></clipPath><clipPath id="SvgjsClipPath1008"><path d=" M 0 0 L 2.1986559602778675 0 L 2.1986559602778675 2.5188485758523145 L 0 2.5188485758523145 Z"></path></clipPath><clipPath id="SvgjsClipPath1013"><path d=" M -1.5455063073399056 0.9392543187117757 h 0.5609172413793103 v 0.58095 h -0.5609172413793103 Z"></path></clipPath><clipPath id="SvgjsClipPath1014"><path d=" M 3.1832450262384633 0.9392543187117754 h 0.5609172413793103 v 0.58095 h -0.5609172413793103 Z"></path></clipPath></defs></svg>